<?xml version="1.0" encoding="UTF-8"?>
<svg width="40px" height="40px" viewBox="0 0 40 40" version="1.1" xmlns="http://www.w3.org/2000/svg"
>
  <!-- Generator: sketchtool 50.2 (55047) - http://www.bohemiancoding.com/sketch -->
  <title>02D03909-6397-4F1B-B30E-C1A7266154C0</title>
  <desc>Created with sketchtool.</desc>
  <defs></defs>
  <g id="Component-Library" stroke="none" stroke-width="1" fill="none" fill-rule="evenodd">
    <g id="Healthesystems---Component-Library-v1-1" transform="translate(-28.000000, -20.000000)" fill="#FAFAFA"
       fill-rule="nonzero">
      <g id="Header">
        <g id="Logo-1">
          <g id="E" transform="translate(28.000000, 20.000000)">
            <path
              d="M19.9144054,33.9662093 C12.9222364,33.9662093 7.14705882,28.9815578 5.90794027,22.3647638 L0,22.3647638 C1.21699144,32.2017309 9.64742306,39.855156 19.8701512,39.855156 C28.0571845,39.855156 35.0936077,34.9587284 38.2135312,27.9449267 L31.5975232,27.9449267 C28.9865234,31.5621075 24.7381169,33.9662093 19.9144054,33.9662093 Z"
              id="Shape"></path>
            <path
              d="M39.873065,19.91655 C39.873065,8.91061595 30.8894555,0 19.848024,0 C9.84656711,0 1.5488982,7.3005294 0.0663813513,16.8507688 L5.99644873,16.8507688 C7.36832999,10.4324786 13.0771262,5.62427492 19.9144054,5.62427492 C26.7516846,5.62427492 32.504735,10.4545346 33.832362,16.8507688 L12.1477873,16.8507688 C11.9265161,17.8432879 11.8158805,18.857863 11.8158805,19.894494 C11.8158805,20.7326213 11.8822619,21.5707485 12.0371517,22.3868198 L12.0371517,22.4088758 L39.6960481,22.4088758 C39.7845565,21.5707485 39.873065,20.7546772 39.873065,19.91655 Z"
              id="Shape"></path>
          </g>
        </g>
      </g>
    </g>
  </g>
</svg>
