<?xml version="1.0" encoding="UTF-8"?>
<svg width="70px" height="80px" viewBox="0 0 70 80" version="1.1" xmlns="http://www.w3.org/2000/svg"
>
  <!-- Generator: sketchtool 50.2 (55047) - http://www.bohemiancoding.com/sketch -->
  <title>FECD8BB6-15DF-4048-AEAB-7FC6BEF80C97</title>
  <desc>Created with sketchtool.</desc>
  <defs></defs>
  <g id="Component-Library" stroke="none" stroke-width="1" fill="none" fill-rule="evenodd" opacity="0.1">
    <g id="Travelers---Filters---No-data-message" transform="translate(-648.000000, -611.000000)">
      <g id="Group-2" transform="translate(518.000000, 611.000000)">
        <g id="No-data-icon" transform="translate(130.000000, 0.000000)">
          <g id="file" fill="#343A40" fill-rule="nonzero">
            <path
              d="M45.2568052,12.0579833 L34.9917445,1.82881446 C33.8906057,0.731525784 32.3979508,0.109728868 30.8441216,0.109728868 L5.87274033,0.109728868 C2.63049827,0.121920964 0,2.74322169 0,5.97412724 L0,56.6932483 C0,59.9241538 2.63049827,62.5454545 5.87274033,62.5454545 L41.1091823,62.5454545 C44.3514244,62.5454545 46.9819226,59.9241538 46.9819226,56.6932483 L46.9819226,16.2032961 C46.9819226,14.6548999 46.357944,13.155272 45.2568052,12.0579833 Z M42.4917233,14.8255892 C42.7486557,15.0816233 42.9199439,15.3864257 43.005588,15.7278044 L31.3212818,15.7278044 L31.3212818,4.08435229 C31.6638583,4.16969697 31.9697302,4.34038632 32.2266626,4.59642034 L42.4917233,14.8255892 Z M41.1091823,58.6439837 L5.87274033,58.6439837 C4.79607127,58.6439837 3.91516022,57.7661528 3.91516022,56.6932483 L3.91516022,5.97412724 C3.91516022,4.90122275 4.79607127,4.02339181 5.87274033,4.02339181 L27.4061215,4.02339181 L27.4061215,16.7031721 C27.4061215,18.3247209 28.7152532,19.6292752 30.3424917,19.6292752 L43.0667624,19.6292752 L43.0667624,56.6932483 C43.0667624,57.7661528 42.1858514,58.6439837 41.1091823,58.6439837 Z"
              id="Shape"></path>
          </g>
          <g id="search" transform="translate(18.245614, 29.090909)">
            <path
              d="M50.7360095,47.8840255 L37.8649274,35.0579473 C37.635443,34.8292653 37.3361155,34.7099529 37.0168329,34.7099529 L35.9891418,34.7099529 C39.4114528,31.0212126 41.5067452,26.0995779 41.5067452,20.6808084 C41.5067452,9.25665029 32.2176155,0 20.7533726,0 C9.28912976,0 0,9.25665029 0,20.6808084 C0,32.1049665 9.28912976,41.3616168 20.7533726,41.3616168 C26.1911553,41.3616168 31.1300589,39.2736505 34.8317422,35.8732484 L34.8317422,36.8874034 C34.8317422,37.2055697 34.9614508,37.5038506 35.1809576,37.7325326 L48.0520397,50.5586109 C48.5209861,51.0259176 49.2792824,51.0259176 49.7482288,50.5586109 L50.7360095,49.5742839 C51.2049559,49.1069772 51.2049559,48.3513323 50.7360095,47.8840255 Z"
              id="Shape" fill="#343A40" fill-rule="nonzero"></path>
            <path
              d="M20.7533726,38.1799539 C11.0451844,38.1799539 3.19282656,30.3550519 3.19282656,20.6808084 C3.19282656,11.0065648 11.0451844,3.18166283 20.7533726,3.18166283 C30.4615609,3.18166283 38.3139187,11.0065648 38.3139187,20.6808084 C38.3139187,30.3550519 30.4615609,38.1799539 20.7533726,38.1799539 Z"
              id="Path" fill="#FFFFFF"></path>
          </g>
        </g>
      </g>
    </g>
  </g>
</svg>
