<?xml version="1.0" encoding="UTF-8" standalone="no"?>
<!-- Generator: Adobe Illustrator 20.0.0, SVG Export Plug-In . SVG Version: 6.00 Build 0)  -->

<svg
  xmlns:dc="http://purl.org/dc/elements/1.1/"
  xmlns:cc="http://creativecommons.org/ns#"
  xmlns:rdf="http://www.w3.org/1999/02/22-rdf-syntax-ns#"
  xmlns="http://www.w3.org/2000/svg"
  xmlns:sodipodi="http://sodipodi.sourceforge.net/DTD/sodipodi-0.dtd"
  xmlns:inkscape="http://www.inkscape.org/namespaces/inkscape"
  version="1.1"
  id="Layer_1"
  x="0px"
  y="0px"
  viewBox="0 0 506.5 123"
  xml:space="preserve"
  sodipodi:docname="vertice_no_v.svg"
  width="506.5"
  height="123"
  inkscape:version="0.92.4 (5da689c313, 2019-01-14)"><metadata
   id="metadata3793"><rdf:RDF><cc:Work
       rdf:about=""><dc:format>image/svg+xml</dc:format><dc:type
  rdf:resource="http://purl.org/dc/dcmitype/StillImage"/><dc:title></dc:title></cc:Work></rdf:RDF></metadata>
  <defs
    id="defs3791">


</defs>
  <sodipodi:namedview
    pagecolor="#ffffff"
    bordercolor="#666666"
    borderopacity="1"
    objecttolerance="10"
    gridtolerance="10"
    guidetolerance="10"
    inkscape:pageopacity="0"
    inkscape:pageshadow="2"
    inkscape:window-width="1600"
    inkscape:window-height="837"
    id="namedview3789"
    showgrid="false"
    inkscape:zoom="2.0069444"
    inkscape:cx="358.61666"
    inkscape:cy="73.849997"
    inkscape:window-x="-8"
    inkscape:window-y="-8"
    inkscape:window-maximized="1"
    inkscape:current-layer="Layer_1"/>
  <style
    type="text/css"
    id="style3754">
	.st0 {
    fill: #FFFFFF;
  }

  .st1 {
    fill: #00B2E3;
  }
</style>
  <g
    id="g3774"
    transform="translate(-212.5,-40.4)">
		<g
      id="g3770">
			<path
        style="fill:#ffffff"
        inkscape:connector-curvature="0"
        id="path3756"
        d="m 289.9,78 -35.2,83.5 h -7.2 L 212.5,78 h 9.9 l 28.7,70.1 28.8,-70.1 c 0,0 10,0 10,0 z"
        class="st0"/>
      <path
        style="fill:#ffffff"
        inkscape:connector-curvature="0"
        id="path3758"
        d="m 377.5,122 h -67.9 c 0.9,19.8 12.1,32.9 30.9,32.9 18.8,0 29.3,-10.8 29.3,-10.8 l 4.5,6.7 c 0,0 -10.5,12.6 -34.7,12.6 -24.3,0 -40,-18 -40,-43.6 0,-25.7 18.3,-43.2 40.6,-43.2 21.9,0 37.8,16.5 37.8,39.1 0,2.6 -0.5,6.3 -0.5,6.3 z m -9,-8.3 c 0,-10.8 -8.1,-29.1 -28.7,-29.1 -20.7,0 -29.1,17.5 -29.8,29.1 z"
        class="st0"/>
      <path
        style="fill:#ffffff"
        inkscape:connector-curvature="0"
        id="path3760"
        d="m 440.1,87 c -2,-0.8 -4.5,-1.5 -9,-1.5 -8.1,0 -13,5.6 -14.4,7.6 -1.5,2 -6,9 -6,23.4 v 45 h -9.4 V 78.1 h 9.4 v 15.7 c 3,-11.3 12.3,-17.1 21.3,-17.1 5.4,0 9,1.2 9,1.2 z"
        class="st0"/>
      <path
        style="fill:#ffffff"
        inkscape:connector-curvature="0"
        id="path3762"
        d="m 493.2,160.5 c 0,0 -4.5,2.6 -12.6,2.6 -8.1,0 -12.8,-3.4 -15.9,-9 -2.8,-5.6 -3,-11.7 -3,-25.1 V 86.7 H 449 v -8.5 h 12.6 V 51.6 h 9.6 v 26.7 h 21.1 v 8.5 H 471 v 47.8 c 0,9.2 1,20.1 12.3,20.1 5.4,0 9,-2.4 9,-2.4 z"
        class="st0"/>
      <path
        style="fill:#ffffff"
        inkscape:connector-curvature="0"
        id="path3764"
        d="m 518.6,56 c -4.4,0 -7.8,-3.4 -7.8,-7.8 0,-4.4 3.4,-7.8 7.8,-7.8 4.4,0 7.8,3.4 7.8,7.8 0,4.4 -3.5,7.8 -7.8,7.8 z m 4.7,105.5 H 514 V 78 h 9.4 v 83.5 z"
        class="st0"/>
      <path
        style="fill:#ffffff"
        inkscape:connector-curvature="0"
        id="path3766"
        d="m 623.5,148.9 c -3,3.6 -11.7,14.4 -34.2,14.4 -22.5,0 -40.8,-18 -40.8,-43.6 0,-25.7 19.8,-43.2 41.8,-43.2 22.1,0 31.1,12.1 32.9,14.4 l -6,6.3 C 613.6,93 606.4,84.9 589.9,84.9 c -16.7,0 -31.6,13.5 -31.6,34.2 0,20.7 13,35.6 31.9,35.6 18.9,0 28,-12.3 28,-12.3 z"
        class="st0"/>
      <path
        style="fill:#ffffff"
        inkscape:connector-curvature="0"
        id="path3768"
        d="m 714.5,122 h -67.9 c 0.9,19.8 12.1,32.9 31,32.9 18.9,0 29.3,-10.8 29.3,-10.8 l 4.5,6.7 c 0,0 -10.5,12.6 -34.7,12.6 -24.3,0 -40,-18 -40,-43.6 0,-25.7 18.3,-43.2 40.6,-43.2 21.9,0 37.8,16.5 37.8,39.1 0,2.6 -0.6,6.3 -0.6,6.3 z m -9,-8.3 c 0,-10.8 -8.1,-29.1 -28.7,-29.1 -20.7,0 -29.1,17.5 -29.8,29.1 z"
        class="st0"/>
		</g>
    <rect
      style="fill:#00b2e3"
      id="rect3772"
      height="9.3999996"
      width="83.5"
      class="st1"
      y="43.299999"
      x="635.5"/>
	</g>
</svg>
