<?xml version="1.0" encoding="UTF-8"?>
<svg width="38px" height="38px" viewBox="0 0 38 38" version="1.1" xmlns="http://www.w3.org/2000/svg"
>
  <!-- Generator: sketchtool 53.2 (72643) - https://sketchapp.com -->
  <title>2632806D-4B3D-45F0-9F4C-EC9E2A251520</title>
  <desc>Created with sketchtool.</desc>
  <g id="Component-Library" stroke="none" stroke-width="1" fill="none" fill-rule="evenodd">
    <g id="Healthesystems---Component-Library-v1-5" transform="translate(-686.000000, -14854.000000)"
       fill-rule="nonzero">
      <g id="Group-26" transform="translate(355.000000, 14713.000000)">
        <g id="Group-41" transform="translate(1.000000, 74.000000)">
          <g id="Left-Nav---Claim-Search" transform="translate(310.000000, 47.000000)">
            <g id="Left-Nav">
              <g id="vertice" transform="translate(20.000000, 20.000000)">
                <g id="Group">
                  <path
                    d="M19.0721519,37.8556962 L19.0721519,37.8556962 C8.65822785,37.8556962 0.216455696,29.4139241 0.216455696,19 L0.216455696,19 C0.216455696,8.58607595 8.65822785,0.144303797 19.0721519,0.144303797 L19.0721519,0.144303797 C29.4860759,0.144303797 37.9278481,8.58607595 37.9278481,19 L37.9278481,19 C37.9278481,29.4139241 29.4860759,37.8556962 19.0721519,37.8556962 Z"
                    id="Shape" fill="#00B2E3"></path>
                  <g transform="translate(7.455696, 7.455696)" fill="#FFFFFF" id="Shape">
                    <polygon
                      points="13.5405063 26.6481013 9.95696203 26.6481013 0.216455696 0.144303797 4.20886076 0.144303797 11.664557 21.2607595"></polygon>
                    <polygon
                      points="14.8151899 22.2708861 23.0164557 0.144303797 19.0962025 0.144303797 13.035443 17.1481013"></polygon>
                  </g>
                </g>
              </g>
            </g>
          </g>
        </g>
      </g>
    </g>
  </g>
</svg>
