<?xml version="1.0" encoding="utf-8"?>
<!-- Generator: Adobe Illustrator 20.0.0, SVG Export Plug-In . SVG Version: 6.00 Build 0)  -->
<svg version="1.1" id="Layer_1" xmlns="http://www.w3.org/2000/svg" xmlns:xlink="http://www.w3.org/1999/xlink" x="0px" y="0px"
	 viewBox="0 0 645.2 180.7" style="enable-background:new 0 0 645.2 180.7;" xml:space="preserve">
<style type="text/css">
	.st0{fill:#FFFFFF;}
</style>
<g>
	<g>
		<g>
			<path class="st0" d="M90,154c-31.6,0-57.7-22.6-63.3-52.6H0c5.5,44.6,43.6,79.3,89.8,79.3c37,0,68.8-22.2,82.9-54h-29.9
				C131,143.1,111.8,154,90,154z"/>
			<path class="st0" d="M180.2,90.3C180.2,40.4,139.6,0,89.7,0C44.5,0,7,33.1,0.3,76.4h26.8c6.2-29.1,32-50.9,62.9-50.9
				s56.9,21.9,62.9,50.9h-98c-1,4.5-1.5,9.1-1.5,13.8c0,3.8,0.3,7.6,1,11.3v0.1h125C179.8,97.8,180.2,94.1,180.2,90.3z"/>
		</g>
		<g>
			<path class="st0" d="M222.6,159.1c1.9,6.2,6.4,10.7,16.5,10.7c10.3,0,14.5-4.2,14.5-9.2c0-5.3-2.9-8.6-16.3-10.9
				c-14.3-2.5-17.9-6.8-17.9-13.5c0-8.4,7.9-13.3,18.5-13.3c15.9,0,19.5,8.3,20.1,13.1h-5.8c-1.1-3.6-3.3-8.4-14.4-8.4
				c-7.5,0-12.6,2.6-12.6,8.1c0,4.4,2,7.3,13.8,9.2c17.7,2.9,20.6,8.5,20.6,15.3c0,7.7-6.2,14.4-20.6,14.4
				c-13.4,0-20.4-6.1-22.1-15.4L222.6,159.1L222.6,159.1z"/>
			<path class="st0" d="M293,173.3v-19.2c0-0.4-0.1-0.7-0.5-1.1l-20.8-29.2h6.7c6.1,8.7,15.4,21.3,17.6,25.4
				c2.5-4.1,11.3-16.6,17.4-25.4h6.3l-20.8,29.3c-0.2,0.3-0.3,0.5-0.3,1.2v19.1L293,173.3L293,173.3L293,173.3z"/>
			<path class="st0" d="M337.3,159.1c1.9,6.2,6.4,10.7,16.5,10.7c10.3,0,14.5-4.2,14.5-9.2c0-5.3-2.9-8.6-16.3-10.9
				c-14.3-2.5-17.9-6.8-17.9-13.5c0-8.4,7.9-13.3,18.5-13.3c15.9,0,19.5,8.3,20.1,13.1h-5.8c-1.1-3.6-3.3-8.4-14.4-8.4
				c-7.5,0-12.6,2.6-12.6,8.1c0,4.4,2,7.3,13.8,9.2c17.7,2.9,20.6,8.5,20.6,15.3c0,7.7-6.2,14.4-20.6,14.4
				c-13.4,0-20.4-6.1-22.1-15.4L337.3,159.1L337.3,159.1z"/>
			<path class="st0" d="M406.5,128.6h-19.3v-4.9h44.3v4.9h-19.3v44.7h-5.7V128.6z"/>
			<path class="st0" d="M484.9,149.6h-30.3v18.8H488l-0.7,4.9H449v-49.6h37.4v4.9h-31.9v16.1h30.3v4.9H484.9z"/>
			<path class="st0" d="M555,151.2c0-9.4,0-18.3,0.3-23.4h-0.1c-2.5,6.9-12.2,28.8-19.6,45.4h-4.8c-5.5-13.3-16.1-38-18.9-45.3h-0.1
				c0.4,5.7,0.6,16.3,0.6,24.7v20.7h-5.2v-49.6h7.9c7.4,16.5,16.9,38.7,18.3,42.7h0.1c2.5-5.8,12.2-27.3,18.8-42.7h8.1v49.6h-5.5
				v-22.2h0.1V151.2z"/>
			<path class="st0" d="M585.4,159.1c1.9,6.2,6.4,10.7,16.5,10.7c10.3,0,14.5-4.2,14.5-9.2c0-5.3-2.9-8.6-16.3-10.9
				c-14.3-2.5-17.9-6.8-17.9-13.5c0-8.4,7.9-13.3,18.5-13.3c15.9,0,19.5,8.3,20.1,13.1H615c-1.1-3.6-3.3-8.4-14.4-8.4
				c-7.5,0-12.6,2.6-12.6,8.1c0,4.4,2,7.3,13.8,9.2c17.7,2.9,20.6,8.5,20.6,15.3c0,7.7-6.2,14.4-20.6,14.4
				c-13.4,0-20.4-6.1-22.1-15.4L585.4,159.1L585.4,159.1z"/>
		</g>
		<g>
			<path class="st0" d="M412.7,92.2c-5.4,5-12.4,7.6-20.8,7.6c-2.9,0-5.7-0.4-8.1-1.3c-2.5-0.9-4.6-2-6.4-3.5s-3.2-3.3-4.2-5.4
				s-1.5-4.5-1.5-6.9c0-13.9,11.9-20.8,35.9-20.8h5.1c0-2.2,0-4.1-0.1-5.5c-0.1-1.5-0.2-2.8-0.5-3.8c-0.3-1.1-0.7-1.9-1.3-2.7
				c-0.6-0.7-1.4-1.4-2.5-2.1c-2.1-1.3-5.3-1.9-9.8-1.9c-9.4,0-14.2,3.4-14.5,10.1h-10.6c0.7-12.2,9.3-18.3,25.6-18.3
				c7.6,0,13.5,1.5,17.8,4.5s6.4,8.9,6.4,17.8v38.4h-10.7v-6.2H412.7z M412.7,82.7V69.5h-7.3c-15.4,0-22.9,4.2-22.9,12.5
				c0,3,1.1,5.3,3.3,6.9c2.2,1.6,5.2,2.5,9.1,2.5c1.7,0,3.4-0.2,5.1-0.6s3.3-1,4.9-1.8c1.6-0.7,3-1.7,4.4-2.8
				C410.5,85.2,411.7,83.9,412.7,82.7z"/>
		</g>
		<rect x="437.5" y="7.3" class="st0" width="9.3" height="91.2"/>
		<path class="st0" d="M531.1,36.8c-7,0-13.5,2.5-19.3,7.1V7.3h-9.3v91.2h9.3V53c2.7-2.9,9.1-7.5,17-7.5c10.9,0,15.1,4.9,15.1,17.5
			v35.4h9.3V59.3C553.2,44.4,545.7,36.8,531.1,36.8z"/>
		<g>
			<path class="st0" d="M607,82.8c-3.8,4.6-9.6,7.5-16.1,7.5c-10,0-18.5-7-20.6-16.5h50.3c0.2-1.5,0.3-3.1,0.3-4.6
				c0-16.6-13.4-30.1-30.1-30.1c-16.6,0-30.1,13.4-30.1,30.1s13.4,30.1,30.1,30.1c11.7,0,21.9-6.7,26.9-16.4
				C617.8,82.8,607,82.8,607,82.8z M591,47.9c10.1,0,18.6,7.1,20.6,16.6h-41.3C572.3,55,580.9,47.9,591,47.9z"/>
		</g>
		<g>
			<path class="st0" d="M348.7,82.8c-3.8,4.6-9.6,7.5-16.1,7.5c-10,0-18.5-7-20.6-16.5h50.3c0.2-1.5,0.3-3.1,0.3-4.6
				c0-16.6-13.4-30.1-30.1-30.1c-16.6,0-30.1,13.4-30.1,30.1s13.4,30.1,30.1,30.1c11.7,0,21.9-6.7,26.9-16.4
				C359.5,82.8,348.7,82.8,348.7,82.8z M332.7,47.9c10.1,0,18.6,7.1,20.6,16.6H312C314,55,322.5,47.9,332.7,47.9z"/>
		</g>
		<polygon class="st0" points="490.3,35.9 478.3,35.9 478.3,6.9 469,6.9 469,35.9 456.8,35.9 456.8,45.2 469,45.2 469,98.9 
			478.3,98.9 478.3,45.2 490.3,45.2 		"/>
		<polygon class="st0" points="280.6,6.2 280.6,47.7 232,47.7 232,6.2 220.8,6.2 220.8,101.2 232,101.2 232,58 280.6,58 
			280.6,101.2 291.7,101.2 291.7,6.2 		"/>
	</g>
	<g>
		<path class="st0" d="M633,40.1h-2.8v8.7h-1.4v-8.7H626v-1.2h7V40.1z"/>
		<path class="st0" d="M645.2,49h-1.4l-0.6-7.9l0,0l-3.1,8h-0.7l-3.1-8l0,0l-0.6,7.9h-1.4l0.9-9.9h1.7l2.9,7.7l0,0l2.9-7.7h1.7
			L645.2,49z"/>
	</g>
</g>
</svg>
