<?xml version="1.0" encoding="utf-8"?>
<!-- Generator: Adobe Illustrator 20.0.0, SVG Export Plug-In . SVG Version: 6.00 Build 0)  -->
<svg version="1.1" id="Layer_1" xmlns="http://www.w3.org/2000/svg" x="0px"
     y="0px"
     viewBox="0 0 720 179.1" style="enable-background:new 0 0 720 179.1;" xml:space="preserve">
<style type="text/css">
	.st0 {
    fill: #FFFFFF;
  }

  .st1 {
    fill: #00B2E3;
  }
</style>
  <g>
	<g>
		<g>
			<path class="st0" d="M289.9,78l-35.2,83.5h-7.2L212.5,78h9.9l28.7,70.1L279.9,78C279.9,78,289.9,78,289.9,78z"/>
      <path class="st0" d="M377.5,122h-67.9c0.9,19.8,12.1,32.9,30.9,32.9c18.8,0,29.3-10.8,29.3-10.8l4.5,6.7c0,0-10.5,12.6-34.7,12.6
				c-24.3,0-40-18-40-43.6c0-25.7,18.3-43.2,40.6-43.2c21.9,0,37.8,16.5,37.8,39.1C378,118.3,377.5,122,377.5,122z M368.5,113.7
				c0-10.8-8.1-29.1-28.7-29.1c-20.7,0-29.1,17.5-29.8,29.1H368.5z"/>
      <path class="st0" d="M440.1,87c-2-0.8-4.5-1.5-9-1.5c-8.1,0-13,5.6-14.4,7.6c-1.5,2-6,9-6,23.4v45h-9.4V78.1h9.4v15.7
				c3-11.3,12.3-17.1,21.3-17.1c5.4,0,9,1.2,9,1.2L440.1,87z"/>
      <path class="st0" d="M493.2,160.5c0,0-4.5,2.6-12.6,2.6c-8.1,0-12.8-3.4-15.9-9c-2.8-5.6-3-11.7-3-25.1V86.7H449v-8.5h12.6V51.6
				h9.6v26.7h21.1v8.5H471v47.8c0,9.2,1,20.1,12.3,20.1c5.4,0,9-2.4,9-2.4L493.2,160.5z"/>
      <path class="st0" d="M518.6,56c-4.4,0-7.8-3.4-7.8-7.8s3.4-7.8,7.8-7.8s7.8,3.4,7.8,7.8S522.9,56,518.6,56z M523.3,161.5H514V78
				h9.4V161.5z"/>
      <path class="st0" d="M623.5,148.9c-3,3.6-11.7,14.4-34.2,14.4c-22.5,0-40.8-18-40.8-43.6c0-25.7,19.8-43.2,41.8-43.2
				c22.1,0,31.1,12.1,32.9,14.4l-6,6.3c-3.6-4.2-10.8-12.3-27.3-12.3c-16.7,0-31.6,13.5-31.6,34.2c0,20.7,13,35.6,31.9,35.6
				c18.9,0,28-12.3,28-12.3L623.5,148.9z"/>
      <path class="st0" d="M714.5,122h-67.9c0.9,19.8,12.1,32.9,31,32.9c18.9,0,29.3-10.8,29.3-10.8l4.5,6.7c0,0-10.5,12.6-34.7,12.6
				c-24.3,0-40-18-40-43.6c0-25.7,18.3-43.2,40.6-43.2c21.9,0,37.8,16.5,37.8,39.1C715.1,118.3,714.5,122,714.5,122z M705.5,113.7
				c0-10.8-8.1-29.1-28.7-29.1c-20.7,0-29.1,17.5-29.8,29.1H705.5z"/>
		</g>
    <rect x="635.5" y="43.3" class="st1" width="83.5" height="9.4"/>
	</g>
    <g>
		<path class="st1" d="M89.4,178.1L89.4,178.1C40.6,178.1,1,138.5,1,89.7l0,0C1,40.9,40.6,1.3,89.4,1.3l0,0
			c48.8,0,88.4,39.6,88.4,88.4l0,0C177.7,138.5,138.2,178.1,89.4,178.1z"/>
      <g>
			<path class="st0" d="M98.4,160.5H81.6L35.9,36.3h18.7l34.9,99L98.4,160.5z"/>
        <polygon class="st0" points="104.4,140 142.8,36.3 124.4,36.3 96,116 			"/>
		</g>
	</g>
</g>
</svg>
